<svg xmlns="http://www.w3.org/2000/svg" width="1820" height="480"><g font-family="Comfortaa" letter-spacing="0" word-spacing="0" opacity=".92"><path style="line-height:125%;-inkscape-font-specification:'Comfortaa Bold'" d="M30.46 243.24c-4.28 0-7.88 1.46-10.798 4.38-2.919 2.723-4.379 6.323-4.379 10.798v1.55h-1.25v115.06h1.25v80.982c0 4.28 1.46 7.88 4.38 10.799 2.918 2.918 6.517 4.378 10.798 4.378 4.475 0 8.075-1.46 10.799-4.378 2.918-2.92 4.377-6.519 4.377-10.8v-63.917h43.197c14.399 0 27.24-3.114 38.525-9.34 11.48-6.226 20.334-14.886 26.56-25.977 6.422-11.09 9.632-23.737 9.632-37.941 0-14.593-3.21-27.63-9.631-39.11-6.227-11.48-15.08-20.43-26.56-26.851-11.286-6.421-24.127-9.633-38.526-9.633H30.461zm562.99 0c-4.281 0-7.785 1.362-10.509 4.086s-4.086 6.227-4.086 10.508v159.357c0 10.313 1.848 19.653 5.545 28.02 3.697 8.172 8.855 14.594 15.471 19.264 6.81 4.475 14.397 6.712 22.764 6.712h.584c5.837 0 10.606-1.361 14.302-4.085 3.697-2.725 5.545-6.228 5.545-10.508 0-4.28-1.265-7.784-3.795-10.508-2.334-2.724-5.448-4.086-9.34-4.086h-7.296c-4.28 0-7.782-2.334-10.506-7.004s-4.086-10.605-4.086-17.805V257.834c0-4.28-1.362-7.784-4.086-10.508-2.724-2.724-6.227-4.086-10.508-4.086zm352.933 0c-4.28 0-7.88 1.46-10.799 4.38-2.919 2.723-4.379 6.323-4.379 10.798V456.01c0 4.28 1.46 7.88 4.379 10.799 2.919 2.918 6.518 4.378 10.799 4.378 4.28 0 7.88-1.46 10.799-4.378 2.918-2.92 4.377-6.519 4.377-10.8v-85.808h83.765c4.28 0 7.784-1.263 10.508-3.793 2.919-2.724 4.377-6.13 4.377-10.217 0-4.086-1.458-7.392-4.377-9.921-2.724-2.725-6.227-4.086-10.508-4.086H961.56V271.26h116.746c4.475 0 8.074-1.266 10.798-3.795 2.725-2.53 4.086-5.838 4.086-9.924 0-4.28-1.361-7.685-4.086-10.215-2.724-2.724-6.323-4.086-10.798-4.086H946.383zm512.326 3.795c-5.254 0-9.825 1.947-13.717 5.838-3.697 3.697-5.545 8.172-5.545 13.426 0 5.253 1.848 9.825 5.545 13.717 3.892 3.697 8.463 5.545 13.717 5.545 5.253 0 9.729-1.848 13.426-5.545 3.891-3.892 5.838-8.464 5.838-13.717 0-5.254-1.947-9.729-5.838-13.426-3.697-3.891-8.173-5.838-13.426-5.838zm-251.4 62.75c-9.73 0-18.875 1.947-27.436 5.838-8.561 3.892-15.76 9.243-21.598 16.053v-5.545c0-9.729-4.865-14.594-14.593-14.594-4.67 0-8.27 1.266-10.8 3.795-2.529 2.53-3.792 6.129-3.792 10.799v130.463c0 4.864 1.263 8.56 3.793 11.09 2.53 2.335 6.129 3.503 10.799 3.503 4.864 0 8.465-1.265 10.8-3.794 2.53-2.53 3.793-6.13 3.793-10.8V371.37c0-10.896 4.28-19.555 12.842-25.976 8.562-6.421 19.848-9.631 33.858-9.631 4.864 0 11.187.68 18.97 2.043 1.946.389 3.406.584 4.38.584 6.031 0 9.922-3.114 11.673-9.34.195-.584.291-1.556.291-2.918 0-4.67-2.919-8.563-8.756-11.676-5.837-3.113-13.912-4.67-24.224-4.67zm400.173 0c-9.728 0-18.874 1.947-27.435 5.838-8.562 3.892-15.76 9.243-21.598 16.053v-5.545c0-9.729-4.865-14.594-14.594-14.594-4.67 0-8.269 1.266-10.798 3.795-2.53 2.53-3.793 6.129-3.793 10.799v130.463c0 4.864 1.263 8.56 3.793 11.09 2.53 2.335 6.129 3.503 10.798 3.503 4.865 0 8.466-1.265 10.801-3.794 2.53-2.53 3.793-6.13 3.793-10.8V371.37c0-10.896 4.28-19.555 12.842-25.976 8.561-6.421 19.848-9.631 33.857-9.631 4.865 0 11.188.68 18.971 2.043 1.946.389 3.406.584 4.379.584 6.032 0 9.923-3.114 11.674-9.34.194-.584.29-1.556.29-2.918 0-4.67-2.918-8.563-8.755-11.676-5.837-3.113-13.912-4.67-24.225-4.67zm-1346.59.584c-14.982 0-28.7 3.6-41.154 10.799-12.258 7.005-21.89 16.735-28.894 29.187-7.005 12.259-10.506 25.976-10.506 41.153s3.21 28.992 9.63 41.445c6.616 12.258 15.567 21.89 26.852 28.895 11.48 7.004 24.225 10.506 38.235 10.506 11.285 0 21.792-2.335 31.521-7.004 9.729-4.67 17.999-11.188 24.809-19.555v10.799c0 4.28 1.362 7.88 4.086 10.799 2.918 2.724 6.518 4.086 10.799 4.086 4.28 0 7.783-1.362 10.507-4.086 2.919-2.92 4.377-6.519 4.377-10.8v-65.085c0-15.177-3.6-28.894-10.799-41.153-7.004-12.452-16.636-22.182-28.894-29.187-12.064-7.2-25.586-10.799-40.568-10.799zm475.42 0c-15.566 0-29.478 3.503-41.736 10.508-12.258 6.81-21.793 16.343-28.603 28.602-6.81 12.258-10.215 26.268-10.215 42.029 0 15.566 3.404 29.478 10.215 41.736 6.81 12.258 16.345 21.89 28.603 28.895 12.258 6.81 26.17 10.215 41.736 10.215 15.567 0 29.382-3.405 41.446-10.215 12.258-7.005 21.791-16.637 28.601-28.895 6.81-12.258 10.215-26.17 10.215-41.736 0-15.76-3.5-29.771-10.506-42.03-6.81-12.258-16.345-21.79-28.603-28.601-12.064-7.005-25.781-10.508-41.153-10.508zm593.95 0c-15.177 0-28.798 3.503-40.862 10.508-11.869 6.81-21.209 16.442-28.02 28.894-6.615 12.259-9.921 26.17-9.921 41.737 0 15.566 3.501 29.478 10.506 41.736 7.2 12.258 17.124 21.89 29.771 28.895 12.648 6.81 26.947 10.215 42.903 10.215 8.95 0 18.29-1.654 28.02-4.961 9.923-3.308 18.192-7.589 24.808-12.842 3.113-2.335 4.67-5.254 4.67-8.756 0-3.697-1.752-7.005-5.254-9.924-2.14-1.946-5.06-2.918-8.756-2.918-3.697 0-6.907 1.07-9.63 3.211-4.087 3.113-9.342 5.739-15.763 7.879-6.226 2.14-12.258 3.21-18.095 3.21-14.788 0-27.338-4.183-37.65-12.55-10.119-8.367-16.247-19.36-18.387-32.98h110.908c3.891 0 7.101-1.167 9.63-3.502 2.53-2.53 3.795-5.643 3.795-9.34 0-15.372-2.918-28.992-8.755-40.861-5.838-11.87-14.204-21.111-25.1-27.727s-23.836-9.924-38.818-9.924zm400.173 0c-15.176 0-28.797 3.503-40.86 10.508-11.87 6.81-21.21 16.442-28.02 28.894-6.616 12.259-9.922 26.17-9.922 41.737 0 15.566 3.5 29.478 10.506 41.736 7.199 12.258 17.124 21.89 29.771 28.895 12.648 6.81 26.947 10.215 42.902 10.215 8.951 0 18.291-1.654 28.02-4.961 9.923-3.308 18.193-7.589 24.809-12.842 3.113-2.335 4.67-5.254 4.67-8.756 0-3.697-1.752-7.005-5.254-9.924-2.14-1.946-5.06-2.918-8.756-2.918-3.697 0-6.907 1.07-9.631 3.211-4.086 3.113-9.34 5.739-15.762 7.879-6.226 2.14-12.258 3.21-18.096 3.21-14.787 0-27.337-4.183-37.65-12.55-10.118-8.367-16.246-19.36-18.387-32.98h110.909c3.891 0 7.103-1.167 9.632-3.502 2.53-2.53 3.793-5.643 3.793-9.34 0-15.372-2.918-28.992-8.756-40.861-5.837-11.87-14.203-21.111-25.1-27.727-10.895-6.616-23.835-9.924-38.818-9.924zm-1333.013.875c-4.28 0-7.882 1.46-10.8 4.379-2.725 2.724-4.087 6.227-4.087 10.508v71.799c0 15.76 3.017 29.283 9.049 40.568 6.032 11.09 14.398 19.555 25.1 25.393 10.701 5.837 22.765 8.755 36.191 8.755 9.729 0 18.874-1.655 27.436-4.962 8.56-3.503 15.955-8.366 22.181-14.592v3.21c0 4.281 1.362 7.88 4.086 10.8 2.919 2.724 6.518 4.085 10.799 4.085 4.475 0 8.075-1.361 10.799-4.085 2.724-2.92 4.086-6.519 4.086-10.8v-130.17c0-4.475-1.362-8.075-4.086-10.799s-6.324-4.088-10.8-4.088c-4.28 0-7.88 1.364-10.798 4.088-2.724 2.724-4.086 6.324-4.086 10.799v82.305c0 7.004-1.946 13.328-5.838 18.97-3.697 5.643-8.95 10.118-15.76 13.426-6.615 3.308-14.009 4.963-22.181 4.963-14.01 0-25.296-3.99-33.858-11.967-8.366-8.172-12.548-20.138-12.548-35.898v-71.8c0-4.28-1.46-7.783-4.38-10.507-2.723-2.919-6.224-4.379-10.505-4.379zm1061.287.293c-4.28 0-7.88 1.362-10.799 4.086-2.724 2.724-4.086 6.324-4.086 10.799v129.88c0 4.281 1.362 7.88 4.086 10.8 2.919 2.724 6.518 4.085 10.799 4.085 4.475 0 8.075-1.361 10.799-4.085 2.724-2.92 4.086-6.519 4.086-10.8v-129.88c0-4.475-1.362-8.075-4.086-10.799s-6.324-4.086-10.799-4.086z" font-weight="700" font-size="168.978" opacity=".93" fill="#37c871"/><text style="line-height:125%;-inkscape-font-specification:'Comfortaa Light'" x="39.694" y="-70.948" font-weight="300" font-size="111.798" fill="#333" transform="translate(-72.587 285.851) scale(1.72723)"><tspan x="39.694" y="-70.948" style="-inkscape-font-specification:'Comfortaa Light'">Biblioteca</tspan></text></g></svg>